<svg width="120" height="41" viewBox="0 0 120 41" fill="none" xmlns="http://www.w3.org/2000/svg">
<path d="M51.3529 21.5284C51.3529 27.4141 46.907 31.7511 41.4508 31.7511C35.9947 31.7511 31.5487 27.4141 31.5487 21.5284C31.5487 15.6013 35.9947 11.3058 41.4508 11.3058C46.907 11.3058 51.3529 15.6013 51.3529 21.5284ZM47.0182 21.5284C47.0182 17.8505 44.4415 15.334 41.4508 15.334C38.4602 15.334 35.8834 17.8505 35.8834 21.5284C35.8834 25.1695 38.4602 27.7229 41.4508 27.7229C44.4415 27.7229 47.0182 25.1649 47.0182 21.5284Z" fill="#EA4335"/>
<path d="M72.7147 21.5284C72.7147 27.4141 68.2688 31.7511 62.8126 31.7511C57.3565 31.7511 52.9105 27.4141 52.9105 21.5284C52.9105 15.6059 57.3565 11.3058 62.8126 11.3058C68.2688 11.3058 72.7147 15.6013 72.7147 21.5284ZM68.3801 21.5284C68.3801 17.8505 65.8033 15.334 62.8126 15.334C59.822 15.334 57.2452 17.8505 57.2452 21.5284C57.2452 25.1695 59.822 27.7229 62.8126 27.7229C65.8033 27.7229 68.3801 25.1649 68.3801 21.5284Z" fill="#FBBC05"/>
<path d="M93.1865 11.9234V30.2762C93.1865 37.8257 88.8874 40.9091 83.8051 40.9091C79.0209 40.9091 76.1415 37.5953 75.0556 34.8852L78.8296 33.2582C79.5016 34.9221 81.1482 36.8855 83.8006 36.8855C87.0539 36.8855 89.0699 34.8068 89.0699 30.8938V29.4236H88.9186C87.9484 30.6634 86.0792 31.7465 83.7205 31.7465C78.785 31.7465 74.2635 27.2942 74.2635 21.5653C74.2635 15.7949 78.785 11.3058 83.7205 11.3058C86.0748 11.3058 87.9439 12.3889 88.9186 13.5918H89.0699V11.928H93.1865V11.9234ZM89.377 21.5653C89.377 17.9657 87.0583 15.334 84.1077 15.334C81.1171 15.334 78.6115 17.9657 78.6115 21.5653C78.6115 25.128 81.1171 27.7229 84.1077 27.7229C87.0583 27.7229 89.377 25.128 89.377 21.5653Z" fill="#4285F4"/>
<path d="M99.9733 1.16607V31.1243H95.7454V1.16607H99.9733Z" fill="#34A853"/>
<path d="M116.449 24.893L119.813 27.2159C118.727 28.8797 116.11 31.7465 111.589 31.7465C105.981 31.7465 101.794 27.2574 101.794 21.5238C101.794 15.4446 106.017 11.3012 111.104 11.3012C116.226 11.3012 118.732 15.523 119.551 17.8044L120 18.9659L106.805 24.6256C107.815 26.6766 109.386 27.7229 111.589 27.7229C113.796 27.7229 115.327 26.5983 116.449 24.893ZM106.093 21.215L114.913 17.4219C114.428 16.1452 112.968 15.2556 111.251 15.2556C109.048 15.2556 105.981 17.2698 106.093 21.215Z" fill="#EA4335"/>
<path d="M15.5452 18.8691V14.532H29.6573C29.7953 15.2879 29.8665 16.182 29.8665 17.1499C29.8665 20.4038 29.0076 24.4275 26.2394 27.2942C23.547 30.1979 20.1068 31.7465 15.5496 31.7465C7.1028 31.7465 0 24.621 0 15.8732C0 7.12545 7.1028 0 15.5496 0C20.2225 0 23.5514 1.89889 26.0525 4.3739L23.0975 7.43425C21.304 5.69206 18.8741 4.33703 15.5452 4.33703C9.37695 4.33703 4.55274 9.48523 4.55274 15.8732C4.55274 22.2613 9.37695 27.4095 15.5452 27.4095C19.5461 27.4095 21.8247 25.7456 23.2844 24.2339C24.4682 23.0079 25.247 21.2565 25.5541 18.8645L15.5452 18.8691Z" fill="#4285F4"/>
</svg>
